<?xml version="1.0" encoding="UTF-8"?>
<svg id="Capa_1" data-name="Capa 1" xmlns="http://www.w3.org/2000/svg" viewBox="0 0 500 500">
  <defs>
    <style>
      .cls-1 {
        fill: #fff;
        stroke-width: 0px;
      }
    </style>
  </defs>
  <g>
    <path class="cls-1" d="m134.51,330.64L24.29,67.07c-.09-.22-9.06-23.88-4.41-33.17,4.6-9.21,30.87-9.32,31.14-9.32h87.96c.14,0,14.39.06,23.77,4.75,9.33,4.66,14.12,14.08,14.17,14.17l48.33,110.23v176.92h-90.73Z"/>
    <path class="cls-1" d="m138.98,25.08h0c.14,0,14.27.06,23.54,4.69,8.97,4.48,13.69,13.45,13.94,13.93l48.28,110.13v176.31h-89.89L24.76,66.9c-.09-.24-8.99-23.68-4.44-32.78,4.47-8.93,30.43-9.04,30.69-9.04h87.96m0-1H51.01s-26.79,0-31.59,9.6c-4.8,9.6,4.4,33.59,4.4,33.59l110.35,263.88h91.56v-177.52l-48.38-110.35s-4.8-9.6-14.39-14.39c-9.6-4.8-23.99-4.8-23.99-4.8h0Z"/>
  </g>
  <g>
    <path class="cls-1" d="m361.65,474.58c-.14,0-14.39-.06-23.77-4.75s-14.12-14.08-14.17-14.17l-48.33-110.23v-176.92h90.73l110.22,263.58c.08.22,9.06,23.88,4.41,33.17-4.61,9.21-30.87,9.32-31.14,9.32h-87.96Z"/>
    <path class="cls-1" d="m365.78,169.02l110.08,263.24c.09.24,8.98,23.69,4.44,32.78-4.47,8.93-30.43,9.04-30.69,9.04h-87.96c-.14,0-14.27-.06-23.54-4.69-8.97-4.48-13.69-13.45-13.94-13.93l-48.28-110.13v-176.31h89.89m.67-1h-91.56v177.52l48.38,110.35s4.8,9.6,14.39,14.39c9.6,4.8,23.99,4.8,23.99,4.8h87.96s26.79,0,31.59-9.6c4.8-9.6-4.4-33.59-4.4-33.59l-110.35-263.88h0Z"/>
  </g>
</svg>